# xmcd CD database file generated by OrangeCD 6.4
#
# Track frame offsets:
#	150
#	18904
#	46736
#	59702
#	75791
#	87095
#	116494
#	135312
#	149082
#	162491
#	182289
#	201872
#	227193
#	239305
#	253624
#
# Disc length: 3814 seconds
#
# Revision: 7
# Processed by: cddbd v1.5.2PL0 Copyright (c) Steve Scherf et al.
# Submitted via: OrangeCD 6.4
#
DISCID=bf0ee40f
DTITLE=Various Artist - Smokey Blues
DYEAR=1997
DGENRE=Blues
TTITLE0=Bobby "Blue" Bland - Stormy Monday Blues
TTITLE1=John Lee Hooker - The Right Time
TTITLE2=Dinah Washington - Blues for a Day
TTITLE3=Mitch Woods - Moanin' n' Ticklin'
TTITLE4=Pee Wee Crayton - Blues After Hours
TTITLE5=Charles Brown - These Blues
TTITLE6=Pinetop Perkins - After Hours
TTITLE7=Big Maybelle - You'll Never Know
TTITLE8=Jimmy Coe - After Hours Joint
TTITLE9=Otis Spann - Worried Life Blues
TTITLE10=Mr. B - Blues for the Nightowls
TTITLE11=Junior Wells - So Long
TTITLE12=Memphis Slim - Mother Earth
TTITLE13=Joe Tuner - Nobody In Mind
TTITLE14=Ronnie Earl - For Abby
EXTD=LABEL =Platinum Entertainment, Inc.\nID =5141612642\nUPC =751416-1264-2
EXTD=5\nCOPYRIGHT =1997
EXTT0=Bobby Bland
EXTT1=John Lee Hooker
EXTT2=Dinah Washington
EXTT3=Mitch Woods
EXTT4=Pee Wee Crayton
EXTT5=Charles Brown
EXTT6=Pinetop Perkins
EXTT7=Big Maybelle
EXTT8=Jimmy Coe
EXTT9=Otis Span
EXTT10=Mr. B
EXTT11=Junior Wells
EXTT12=Memphis Slim
EXTT13=Joe Turner
EXTT14=Ronnie Earl
PLAYORDER=
